<?xml version="1.0" encoding="UTF-8"?>
<!DOCTYPE svg PUBLIC "-//W3C//DTD SVG 1.1//EN" "http://www.w3.org/Graphics/SVG/1.1/DTD/svg11.dtd">
<!-- Creator: CorelDRAW 2020 (64-Bit) -->
<svg xmlns="http://www.w3.org/2000/svg" xml:space="preserve" width="2.032mm" height="2.032mm" version="1.1" style="shape-rendering:geometricPrecision; text-rendering:geometricPrecision; image-rendering:optimizeQuality; fill-rule:evenodd; clip-rule:evenodd"
viewBox="0 0 1.86 1.86"
 xmlns:xlink="http://www.w3.org/1999/xlink"
 xmlns:xodm="http://www.corel.com/coreldraw/odm/2003">
 <defs>
  <style type="text/css">
   <![CDATA[
    .fil0 {fill:none}
    .fil1 {fill:white;fill-rule:nonzero}
   ]]>
  </style>
 </defs>
 <g id="Capa_x0020_1">
  <metadata id="CorelCorpID_0Corel-Layer"/>
  <rect class="fil0" width="1.86" height="1.86"/>
  <path class="fil1" d="M0.24 1.62l0.14 0 0.84 -0.84 -0.14 -0.14 -0.84 0.84 0 0.14zm1.39 -0.98l-0.41 -0.41 0.14 -0.14c0.04,-0.04 0.08,-0.06 0.14,-0.06 0.05,0 0.1,0.02 0.14,0.06l0.14 0.14c0.04,0.04 0.06,0.08 0.06,0.13 0,0.05 -0.02,0.1 -0.05,0.13l-0.14 0.14zm-0.14 0.14l-1.03 1.03 -0.41 0 0 -0.41 1.03 -1.03 0.41 0.41z"/>
 </g>
</svg>
