<?xml version="1.0" encoding="UTF-8"?>
<!DOCTYPE svg PUBLIC "-//W3C//DTD SVG 1.1//EN" "http://www.w3.org/Graphics/SVG/1.1/DTD/svg11.dtd">
<!-- Creator: CorelDRAW 2020 (64-Bit) -->
<svg xmlns="http://www.w3.org/2000/svg" xml:space="preserve" width="2.032mm" height="2.032mm" version="1.1" style="shape-rendering:geometricPrecision; text-rendering:geometricPrecision; image-rendering:optimizeQuality; fill-rule:evenodd; clip-rule:evenodd"
viewBox="0 0 1.88 1.88"
 xmlns:xlink="http://www.w3.org/1999/xlink"
 xmlns:xodm="http://www.corel.com/coreldraw/odm/2003">
 <defs>
  <style type="text/css">
   <![CDATA[
    .fil0 {fill:none}
    .fil1 {fill:white;fill-rule:nonzero}
   ]]>
  </style>
 </defs>
 <g id="Capa_x0020_1">
  <metadata id="CorelCorpID_0Corel-Layer"/>
  <g id="_2120220402960">
   <rect class="fil0" width="1.88" height="1.88"/>
   <path class="fil1" d="M0.47 1.79c-0.05,0 -0.1,-0.02 -0.13,-0.06 -0.04,-0.04 -0.06,-0.08 -0.06,-0.13l0 -1.23 -0.09 0 0 -0.19 0.47 0 0 -0.09 0.57 0 0 0.09 0.47 0 0 0.19 -0.09 0 0 1.23c0,0.05 -0.02,0.1 -0.06,0.13 -0.04,0.04 -0.08,0.06 -0.13,0.06l-0.94 0zm0.94 -1.42l-0.94 0 0 1.23 0.94 0 0 -1.23zm-0.76 1.04l0.19 0 0 -0.85 -0.19 0 0 0.85zm0.38 0l0.19 0 0 -0.85 -0.19 0 0 0.85z"/>
  </g>
 </g>
</svg>
